<svg xmlns="http://www.w3.org/2000/svg" xmlns:xlink="http://www.w3.org/1999/xlink" width="40" zoomAndPan="magnify" viewBox="0 0 30 30.000001" height="40" preserveAspectRatio="xMidYMid meet" version="1.0"><defs><clipPath id="640a9b26cd"><path d="M 1 0.652344 L 28.976562 0.652344 L 28.976562 28.230469 L 1 28.230469 Z M 1 0.652344 " clip-rule="nonzero"/></clipPath></defs><g clip-path="url(#640a9b26cd)"><path fill="#95999b" d="M 18.652344 14.582031 L 27.585938 5.585938 C 28.644531 4.519531 28.644531 2.789062 27.585938 1.722656 C 26.527344 0.65625 24.8125 0.65625 23.753906 1.722656 L 14.820312 10.71875 L 5.886719 1.726562 C 4.828125 0.65625 3.109375 0.65625 2.050781 1.726562 C 0.992188 2.789062 0.992188 4.519531 2.050781 5.585938 L 10.984375 14.582031 L 2.03125 23.601562 C 0.972656 24.664062 0.972656 26.394531 2.03125 27.460938 C 2.558594 27.996094 3.253906 28.261719 3.945312 28.261719 C 4.640625 28.261719 5.335938 27.996094 5.863281 27.460938 L 14.820312 18.445312 L 23.75 27.441406 C 24.28125 27.972656 24.976562 28.238281 25.667969 28.238281 C 26.359375 28.238281 27.054688 27.972656 27.585938 27.441406 C 28.644531 26.375 28.644531 24.644531 27.585938 23.578125 Z M 18.652344 14.582031 " fill-opacity="1" fill-rule="nonzero"/></g></svg>